<svg width="89" height="101" viewBox="0 0 89 101" fill="none" xmlns="http://www.w3.org/2000/svg">
<path fill-rule="evenodd" clip-rule="evenodd" d="M44.2999 31.1C40.9999 31.1 38.3999 28.5 38.3999 25.3C38.3999 22.1 40.9999 19.5 44.2999 19.5C47.5999 19.5 50.1999 22.1 50.1999 25.3C50.1999 28.5 47.5999 31.1 44.2999 31.1ZM57.1999 25.2001C57.1999 25.2001 52.8999 18.4 44.2999 18.4C35.6999 18.4 31.3999 25.2001 31.3999 25.2001C31.3999 25.2001 37.3999 32 44.2999 32C51.1999 32 57.1999 25.2001 57.1999 25.2001Z" fill="#FFFFFE"/>
<path fill-rule="evenodd" clip-rule="evenodd" d="M43 21.9C41.9 21.9 41 22.8 41 24C41 25.2 41.9 26.1 43 26.1C44.1 26.1 45 25.2 45 24C45 22.8 44.1 21.9 43 21.9Z" fill="#FFFFFE"/>
<path fill-rule="evenodd" clip-rule="evenodd" d="M3.50004 47.1C4.40004 48.5 5.50003 49.8 6.60003 51C6.60003 51.2001 6.60003 51.4 6.60003 51.6C6.60003 72.4 23.5 89.3 44.3 89.3C65.1 89.3 82 72.4 82 51.6C82 51.4 82 51.2001 82 51C83.2 49.8 84.2 48.5 85.1 47.1C85.4 49.2 85.5 51.3 85.5 53.5C85.5 85.4 44.2 98.1 44.2 98.1C44.2 98.1 3.00004 86.3 3.00004 53.5C3.00004 51.4001 3.20004 49.2 3.50004 47.1ZM34.8 36C41.5 40.3 43.2 46.3 43.2 57.2001C43.2 82 33.5 85.1 33.5 85.1C33.5 85.1 16.9 80.1 16.9 68.7C16.9 62 26.5 60 26.5 60C26.5 60 -17.2 47.7 13 16.3C13.5 23.7 27.5 31.3 34.8 36ZM69 23C62.4 17.3 53.8 13.8 44.3 13.8C34.9 13.8 26.3 17.3 19.7 23C18.8 22.1 17.9 21.3 17.2 20.4C19.6 17.4 20.5 13.9 20.4 12.1C22.4 13.7 26.4 13.9 30.8 12.4C31 12.3 31.2 12.3 31.5 12.2C36 10.6 40.9 7.30005 44.3 2.40005C47.7 7.30005 52.4 10.5 56.9 12.2C57.3 12.3 57.7 12.5 58.1 12.6C62.3 13.9 66.2 13.7 68.1 12.1C68.1 13.9 68.9 17.4 71.4 20.5C70.7 21.3 69.9 22.2001 69 23ZM44.3 43.1C42.8 38.6 41 36.1 35.6 32.5C28.9 28.1 28 25.1 28 25.1C28 25.1 32.3 16 44.2 16C56.2 16 60.4 25.1 60.4 25.1C60.4 25.1 59.5 28.1 52.8 32.5C47.6 36.1 45.8 38.6 44.3 43.1ZM71.7 68.7C71.7 80.2 55.1 85.1 55.1 85.1C55.1 85.1 45.4 82 45.4 57.2001C45.4 46.3 47.1 40.3 53.8 36C61.1 31.3 75.1 23.6 75.5 16.2C105.8 47.7001 62.1 60 62.1 60C62.1 60 71.7 62 71.7 68.7ZM87.6 41.5C89.8 33.4 86.2 24.4 77 14.8C76.6 14.4 76.1 14.2 75.6 14.2C75.4 14.2 75.1 14.2 74.9 14.3C74.2 14.6 73.7 15.3 73.6 16C73.5 16.9 73.2 17.8001 72.7 18.7001C70.9 16.3001 70.1 13.5 70.1 12C70.1 11.2 69.7 10.5 69 10.2C68.7 10.1 68.4 10 68.1 10C67.6 10 67.2 10.2 66.8 10.4C66.1 10.9 64.8 11.3 63.3 11.3C61.9 11.3 60.3 11 58.7 10.6C58.3 10.5 57.9 10.3 57.5 10.2C54.8 9.20005 49.7 6.70005 45.9 1.20005C45.5 0.700049 44.9 0.300049 44.3 0.300049C43.6 0.300049 43 0.600049 42.7 1.20005C38.8 6.80005 33.6 9.30005 30.9 10.3C30.7 10.4 30.4 10.4 30.3 10.5C28.6 11.1 26.8 11.4 25.2 11.4C23.6 11.4 22.4 11.1 21.7 10.5C21.4 10.2 20.9 10.1 20.4 10.1C20.1 10.1 19.8 10.2 19.5 10.3C18.8 10.6 18.4 11.4 18.4 12.1C18.4 13.6 17.7 16.4 15.9 18.8C15.4 17.8 15.1 16.9 15 16.1C15 15.3 14.4 14.6 13.7 14.4C13.5 14.3 13.3 14.3 13 14.3C12.5 14.3 11.9 14.5 11.6 14.9C2.40003 24.5 -1.19996 33.4 1.00004 41.5C1.30004 42.8 1.90004 44.1 2.50004 45.3C1.90004 45.6 1.50004 46.2001 1.40004 46.8C1.10004 49 1.00004 51.2001 1.00004 53.5C1.00004 67.6001 8.40004 80.1001 22.5 89.8C33 97 43.3 100 43.7 100.1C43.9 100.2 44.1 100.2 44.2 100.2C44.4 100.2 44.6 100.2 44.8 100.1C45.2 100 55.5 96.8 66 89.5C80.1 79.7 87.5 67.3 87.5 53.6C87.5 51.4 87.3 49.2001 87.1 47C87 46.4001 86.6 45.8 86 45.5C86.7 44.1 87.2 42.8 87.6 41.5Z" fill="#FFFFFE"/>
</svg>
